<svg width="62" height="41" viewBox="0 0 62 41" fill="none" xmlns="http://www.w3.org/2000/svg">
<g clip-path="url(#clip0_214_566)">
<path d="M0 5.125C0 2.29454 2.29454 0 5.125 0H56.375C59.2055 0 61.5 2.29454 61.5 5.125V35.875C61.5 38.7055 59.2055 41 56.375 41H5.125C2.29454 41 0 38.7055 0 35.875V5.125Z" fill="#D4DEF7"/>
<path d="M45.3854 12.6469L44.1954 15.2701H46.5818L45.3854 12.6469ZM31.654 14.2725C31.8784 14.166 32.0104 13.9344 32.0104 13.6469C32.0104 13.3651 31.8717 13.161 31.6474 13.0651C31.4431 12.9588 31.1288 12.9465 30.8275 12.9465H28.6986V14.4081H30.7989C31.1353 14.4082 31.4164 14.4037 31.654 14.2725ZM4.37503 12.6469L3.19854 15.2701H5.55862L4.37503 12.6469ZM59.1507 29.452H55.8119V28.0407H59.1372C59.4668 28.0407 59.6977 28.0014 59.8367 27.8776C59.9681 27.7673 60.0424 27.6115 60.0411 27.4485C60.0411 27.2567 59.9573 27.1044 59.8298 27.0133C59.7046 26.9128 59.5217 26.8671 59.2206 26.8671C57.5973 26.8169 55.5721 26.9127 55.5721 24.8299C55.5721 23.8754 56.2384 22.8705 58.0527 22.8705H61.4965V21.561H58.2969C57.3313 21.561 56.6297 21.7713 56.1331 22.0986V21.561H51.4005C50.6437 21.561 49.7555 21.7316 49.3354 22.0986V21.561H40.8836V22.0986C40.2112 21.6571 39.0761 21.561 38.5525 21.561H32.9778V22.0986C32.4458 21.6298 31.2622 21.561 30.5412 21.561H24.3023L22.8748 22.9666L21.5376 21.561H12.2178V30.7455H21.3618L22.8327 29.3174L24.2184 30.7455L29.8548 30.75V28.5894H30.4091C31.1569 28.6004 32.0389 28.5728 32.8173 28.2667V30.7452H37.4663V28.3513H37.6905C37.9766 28.3513 38.005 28.3622 38.005 28.6224V30.7447H52.1282C53.0249 30.7447 53.9622 30.5361 54.4811 30.1568V30.7447H58.961C59.8932 30.7447 60.8036 30.6258 61.4963 30.3215V28.6106C61.0765 29.1692 60.2578 29.4524 59.1505 29.4524L59.1507 29.452ZM30.4831 27.2834H28.3259V29.4911H24.9655L22.8366 27.3123L20.6243 29.4911H13.7761V22.9093H20.7297L22.8567 25.0668L25.0557 22.9093H30.5801C31.9522 22.9093 33.4937 23.255 33.4937 25.0776C33.4937 26.906 31.9943 27.2834 30.4831 27.2834ZM40.8564 26.985C41.1006 27.3062 41.1358 27.6062 41.1429 28.1864V29.4911H39.407V28.6678C39.407 28.2718 39.449 27.6854 39.1275 27.3794C38.8752 27.1437 38.49 27.0874 37.859 27.0874H36.0115V29.4911H34.2744V22.9094H38.2657C39.1413 22.9094 39.7786 22.9448 40.346 23.2199C40.8916 23.5198 41.235 23.9307 41.235 24.6815C41.2348 25.732 40.4647 26.2679 40.0096 26.4326C40.3942 26.5617 40.7087 26.7933 40.8564 26.985ZM47.998 24.2705H43.9495V25.467H47.8991V26.81H43.9495V28.1195L47.998 28.1254V29.4911H42.2278V22.9093H47.998V24.2705ZM52.4406 29.491H49.0734V28.0796H52.4272C52.7552 28.0796 52.9877 28.0402 53.1334 27.9166C53.2523 27.8148 53.3377 27.6668 53.3377 27.4876C53.3377 27.2956 53.2452 27.1433 53.1268 27.052C52.9944 26.9517 52.8119 26.9062 52.511 26.9062C50.8942 26.8558 48.8694 26.9515 48.8694 24.8689C48.8694 23.9142 49.5288 22.9094 51.3412 22.9094H54.8074V24.31H51.6357C51.3214 24.31 51.117 24.321 50.9432 24.4292C50.7536 24.5358 50.6834 24.6939 50.6834 24.9025C50.6834 25.1508 50.8443 25.3198 51.0616 25.3928C51.2441 25.4505 51.4399 25.4674 51.7345 25.4674L52.6653 25.4905C53.6035 25.511 54.248 25.659 54.6396 26.0197C54.976 26.3365 55.1568 26.7367 55.1568 27.4141C55.1566 28.83 54.1842 29.491 52.4406 29.491ZM39.0317 24.3767C38.8229 24.2638 38.5146 24.2578 38.2069 24.2578H36.0779V25.7359H38.1785C38.5147 25.7359 38.8007 25.7251 39.0317 25.6003C39.2558 25.477 39.3899 25.2501 39.3899 24.9686C39.3899 24.6871 39.2558 24.4833 39.0317 24.3767ZM58.3487 24.2576C58.0342 24.2576 57.8251 24.2685 57.6491 24.3765C57.4666 24.4833 57.3966 24.6413 57.3966 24.8501C57.3966 25.0982 57.5506 25.2673 57.7746 25.3404C57.9571 25.3981 58.1527 25.415 58.4407 25.415L59.378 25.4377C60.3234 25.459 60.9548 25.607 61.3396 25.9677C61.4097 26.0177 61.4518 26.074 61.5 26.1305V24.2578H58.3488L58.3487 24.2576ZM30.543 24.2576H28.2887V25.934H30.523C31.1872 25.934 31.6003 25.634 31.6006 25.0647C31.6003 24.4891 31.1671 24.2576 30.543 24.2576ZM15.498 24.2576V25.4543H19.2934V26.7972H15.498V28.1066H19.7486L21.7235 26.1758L19.8325 24.2576H15.498ZM26.5974 28.8603V23.5836L23.9431 26.1795L26.5974 28.8603ZM15.6431 18.293V19.4271H30.0872L30.0805 17.0279H30.3601C30.5558 17.0341 30.6128 17.0505 30.6128 17.3445V19.4271H38.0834V18.8686C38.686 19.1623 39.6231 19.4271 40.8564 19.4271H43.9992L44.6719 17.9656H46.1631L46.8209 19.4271H52.8773V18.0388L53.7942 19.4271H58.6477V10.25H53.8447V11.3338L53.1721 10.25H48.2435V11.3338L47.6259 10.25H40.9685C39.854 10.25 38.8747 10.3915 38.0834 10.7859V10.25H33.4891V10.7859C32.9855 10.3794 32.2993 10.25 31.5366 10.25H14.7523L13.6262 12.6204L12.4696 10.25H7.18312V11.3338L6.60225 10.25H2.09373L7.88479e-05 14.6135V18.1038L3.09596 11.5235H5.66475L8.60498 17.7537V11.5235H11.4269L13.6894 15.9874L15.768 11.5235H18.6465V18.1038H16.8744L16.8679 12.9503L14.3609 18.1038H12.8429L10.3295 12.9457V18.1038H6.81285L6.14856 16.6361H2.54884L1.87768 18.1038H0V19.4276H2.95411L3.62014 17.966H5.11147L5.77576 19.4276H11.5879V18.3101L12.1066 19.4322H15.1238L15.6426 18.2932L15.6431 18.293ZM38.4041 12.2905C38.9628 11.7654 39.8382 11.5232 41.0296 11.5232H42.7033V12.9331H41.0647C40.4341 12.9331 40.0774 13.0185 39.7344 13.323C39.4395 13.6 39.2374 14.1238 39.2374 14.8134C39.2374 15.5185 39.3915 16.0267 39.7127 16.3588C39.9789 16.6191 40.4628 16.6981 40.9177 16.6981H41.6944L44.131 11.5234H46.7214L49.6485 17.7473V11.5235H52.2809L55.32 16.1062V11.5235H57.0909V18.1035H54.6409L51.3639 13.1648V18.1035H47.8428L47.1701 16.6358H43.5786L42.9259 18.1035H40.9026C40.0624 18.1035 38.9984 17.9345 38.3958 17.3757C37.7882 16.817 37.4723 16.0602 37.4723 14.8637C37.472 13.8877 37.6607 12.9956 38.4041 12.2905ZM34.848 11.5232H36.612V18.1035H34.848V11.5232ZM26.8946 11.5232H30.8711C31.7544 11.5232 32.4058 11.5446 32.9647 11.8384C33.5116 12.1324 33.8395 12.5615 33.8395 13.2953C33.8395 14.3446 33.0697 14.8865 32.6215 15.0494C32.9996 15.1804 33.3229 15.4118 33.4769 15.6034C33.721 15.9307 33.7631 16.2231 33.7631 16.8107V18.1034H32.0193L32.0128 17.2736C32.0128 16.8776 32.0544 16.3081 31.7399 15.9918C31.4873 15.7604 31.1022 15.71 30.4797 15.71H28.6238V18.1035H26.8949L26.8946 11.5232ZM19.925 11.5232H25.7005V12.8935H21.6541V14.0796H25.6034V15.4285H21.6541V16.7426H25.7005V18.1034H19.925V11.5232Z" fill="#2557D6"/>
</g>
<defs>
<clipPath id="clip0_214_566">
<rect width="61.5" height="41" fill="white"/>
</clipPath>
</defs>
</svg>
