<svg width="71" height="65" viewBox="0 0 71 65" fill="none" xmlns="http://www.w3.org/2000/svg">
<path d="M66.5625 47.3958C66.5625 50.375 63.9 52.8125 60.6458 52.8125H10.3542C7.1 52.8125 4.4375 50.375 4.4375 47.3958V17.6042C4.4375 14.625 7.1 12.1875 10.3542 12.1875H60.6458C63.9 12.1875 66.5625 14.625 66.5625 17.6042V47.3958Z" fill="#E1E7EA"/>
<path d="M66.5623 47.3958C66.5623 50.375 63.8998 52.8125 60.6457 52.8125H23.6665C23.6665 52.8125 58.5748 47.6667 66.5623 32.5V47.3958ZM32.5415 32.5C32.5415 34.8021 34.4644 36.5625 36.979 36.5625C39.4936 36.5625 41.4165 34.8021 41.4165 32.5C41.4165 30.1979 39.4936 28.4375 36.979 28.4375C34.4644 28.4375 32.5415 30.1979 32.5415 32.5Z" fill="#FF6D00"/>
<path d="M16.5667 28.4375H18.1938V36.5625H16.5667V28.4375ZM25.4417 32.5C25.4417 34.8021 27.3646 36.5625 29.8792 36.5625C30.6188 36.5625 31.2104 36.4271 31.95 36.1563V34.3959C31.3583 34.9375 30.7667 35.2084 29.8792 35.2084C28.2521 35.2084 27.0687 34.125 27.0687 32.5C27.0687 31.0105 28.2521 29.7917 29.8792 29.7917C30.6188 29.7917 31.2104 30.0625 31.95 30.6042V28.8438C31.2104 28.573 30.6188 28.3021 29.8792 28.3021C27.3646 28.4375 25.4417 30.3334 25.4417 32.5ZM45.2625 33.7188L42.8958 28.4375H41.1208L44.8187 36.5625H45.7062L49.4042 28.4375H47.6292L45.2625 33.7188ZM50.1438 36.5625H54.8771V35.2084H51.7708V33.0417H54.7292V31.6875H51.7708V29.7917H54.8771V28.4375H50.1438V36.5625ZM61.3854 30.875C61.3854 29.3855 60.35 28.4375 58.4271 28.4375H55.9125V36.5625H57.5396V33.3125H57.6875L60.0542 36.5625H62.125L59.4625 33.1771C60.6458 32.9063 61.3854 32.0938 61.3854 30.875ZM57.9833 32.2292H57.5396V29.7917H57.9833C59.0187 29.7917 59.6104 30.198 59.6104 31.0105C59.6104 31.6875 59.1667 32.2292 57.9833 32.2292ZM11.3896 28.4375H8.875V36.5625H11.2417C14.9396 36.5625 15.8271 33.7188 15.8271 32.5C15.975 30.0625 14.0521 28.4375 11.3896 28.4375ZM10.9458 35.2084H10.5021V29.7917H11.0937C13.3125 29.7917 14.2 31.1459 14.2 32.5C14.2 33.0417 14.0521 35.2084 10.9458 35.2084ZM22.6312 31.5521C21.5958 31.1459 21.3 31.0105 21.3 30.6042C21.3 30.0625 21.8917 29.7917 22.4833 29.7917C22.9271 29.7917 23.3708 29.9271 23.8146 30.4688L24.7021 29.3855C23.9625 28.7084 23.2229 28.4375 22.1875 28.4375C20.7083 28.4375 19.525 29.3855 19.525 30.7396C19.525 31.823 20.1167 32.3646 21.5958 32.9063C22.4833 33.1771 23.2229 33.448 23.2229 34.125C23.2229 34.8021 22.6312 35.2084 21.8917 35.2084C21.1521 35.2084 20.4125 34.8021 20.1167 34.125L19.0812 35.073C19.8208 36.1563 20.7083 36.5625 22.0396 36.5625C23.8146 36.5625 24.9979 35.4792 24.9979 33.9896C24.9979 32.7709 24.4062 32.2292 22.6312 31.5521Z" fill="black"/>
</svg>
