<svg width="400" height="432" viewBox="0 0 400 432" fill="none" xmlns="http://www.w3.org/2000/svg">
<path d="M200 419.013C310.457 419.013 400 329.178 400 218.361C400 107.545 310.457 17.7098 200 17.7098C89.5431 17.7098 0 107.545 0 218.361C0 329.178 89.5431 419.013 200 419.013Z" fill="#D9CDB4"/>
<path d="M76.4934 130.192C80.6223 138.817 88.2218 150.464 101.127 157.367C116.485 149.223 127.615 133.774 132.482 113.743C133.579 109.201 134.517 104.478 134.816 99.9955C125.561 105.779 114.63 109.141 102.942 109.141C89.7975 109.141 77.6104 104.898 67.6772 97.7142C67.757 100.196 68.0562 102.897 68.6347 105.879C70.1905 114.303 72.8233 122.468 76.4934 130.192Z" fill="#675040"/>
<path d="M130.009 201.452C134.577 201.452 138.287 197.69 138.307 193.107C138.307 188.505 134.577 184.763 129.989 184.763C125.401 184.763 121.672 188.505 121.672 193.107C121.672 197.71 125.242 201.272 129.67 201.452H130.009Z" fill="#675040"/>
<path d="M150.274 86.1878C148.738 88.1089 147.103 89.9499 145.368 91.6709C146.664 101.196 144.35 110.882 143.074 116.185C137.509 139.217 124.624 157.107 106.652 166.793V209.656C106.652 212.138 107.27 214.019 108.487 215.22C109.923 216.66 112.377 217.421 115.568 217.421C117.383 217.541 119.059 217.201 120.555 216.44C122.21 215.44 122.988 213.218 123.327 211.117C115.847 208.336 110.761 201.112 110.781 192.987C110.821 182.381 119.418 173.776 129.989 173.776H130.049C140.64 173.817 149.237 182.481 149.197 193.107C149.197 202.112 142.834 209.917 134.218 211.858C133.4 218.181 130.528 223.104 126.06 225.825C123.028 227.466 119.717 228.307 116.366 228.307C116.087 228.307 115.807 228.307 115.528 228.307C109.425 228.307 104.318 226.446 100.808 222.924C97.5167 219.622 95.7814 215.039 95.7814 209.636V166.813C83.5744 160.149 73.5614 149.143 66.7199 134.875C62.6508 126.29 59.7188 117.205 58.0034 107.86C56.6072 100.436 56.4875 93.9922 57.6045 88.5091C56.9263 87.7287 56.2681 86.9483 55.6298 86.1278C37.0998 91.7509 23.8556 105.939 23.8556 122.448V252.9C23.8556 268.789 36.1025 282.497 53.5355 288.54V412.729C53.5355 429.859 71.3474 432 93.0887 432H112.875C134.636 432 152.428 429.859 152.428 412.729V288.54C169.841 282.497 182.108 268.789 182.108 252.9V122.488C182.108 105.979 168.844 91.811 150.314 86.1878H150.274Z" fill="#675040"/>
<path d="M102.962 0C76.3339 0 54.6525 21.7321 54.6525 48.4669C54.6525 75.2018 76.314 96.9339 102.962 96.9339C129.61 96.9339 151.272 75.2018 151.272 48.4669C151.272 21.7321 129.59 0 102.962 0Z" fill="#675040"/>
<path d="M329.949 86.1478C318.859 100.136 301.765 109.141 282.597 109.141C263.429 109.141 246.335 100.136 235.245 86.1478C216.715 91.771 203.471 105.979 203.471 122.488V252.9C203.471 268.789 215.718 282.497 233.151 288.54V412.729C233.151 429.859 250.962 432 272.704 432H292.49C314.252 432 332.044 429.859 332.044 412.729V288.54C349.457 282.497 361.723 268.789 361.723 252.9V122.488C361.723 105.979 348.479 91.791 329.949 86.1478Z" fill="#DE6302"/>
<path d="M282.597 0C255.949 0 234.287 21.7321 234.287 48.4669C234.287 75.2018 255.949 96.9339 282.597 96.9339C309.245 96.9339 330.907 75.2018 330.907 48.4669C330.907 21.7321 309.225 0 282.597 0Z" fill="#DE6302"/>
</svg>
