<svg width="62" height="41" viewBox="0 0 62 41" fill="none" xmlns="http://www.w3.org/2000/svg">
<g clip-path="url(#clip0_829_1966)">
<path d="M0 5.125C0 2.29454 2.29454 0 5.125 0H56.375C59.2055 0 61.5 2.29454 61.5 5.125V35.875C61.5 38.7055 59.2055 41 56.375 41H5.125C2.29454 41 0 38.7055 0 35.875V5.125Z" fill="#F3F3F3"/>
</g>
<g clip-path="url(#clip1_829_1966)">
<path d="M47.3105 33.9281V33.9983H47.3758C47.3881 33.9985 47.4001 33.9954 47.4108 33.9893C47.4151 33.9863 47.4185 33.9823 47.4208 33.9776C47.4231 33.9729 47.4241 33.9677 47.4239 33.9625C47.4241 33.9574 47.4231 33.9523 47.4208 33.9477C47.4185 33.9431 47.415 33.9392 47.4108 33.9364C47.4003 33.93 47.3881 33.9269 47.3758 33.9274H47.3105V33.9281ZM47.3765 33.8785C47.4045 33.8767 47.4322 33.8848 47.4549 33.9013C47.464 33.9087 47.4712 33.9183 47.476 33.929C47.4808 33.9398 47.483 33.9516 47.4824 33.9634C47.4828 33.9735 47.481 33.9836 47.4772 33.993C47.4734 34.0025 47.4677 34.0109 47.4603 34.0179C47.4428 34.0332 47.4208 34.0424 47.3977 34.0441L47.4852 34.1441H47.4178L47.3373 34.0448H47.3112V34.1441H47.2549V33.8786H47.3774L47.3765 33.8785ZM47.359 34.2357C47.3885 34.2359 47.4178 34.23 47.4449 34.2181C47.471 34.2068 47.4948 34.1907 47.5149 34.1706C47.5351 34.1505 47.5512 34.1266 47.5623 34.1004C47.5853 34.0448 47.5853 33.9823 47.5623 33.9267C47.551 33.9006 47.5349 33.8768 47.5149 33.8565C47.4948 33.8364 47.471 33.8203 47.4449 33.809C47.4177 33.7978 47.3885 33.7922 47.359 33.7925C47.329 33.7922 47.2993 33.7978 47.2715 33.809C47.2448 33.82 47.2205 33.8362 47.1999 33.8565C47.169 33.8884 47.148 33.9286 47.1397 33.9723C47.1314 34.016 47.1361 34.0611 47.1532 34.1021C47.1639 34.1285 47.1798 34.1524 47.1999 34.1723C47.2205 34.1926 47.2448 34.2088 47.2715 34.2199C47.2991 34.2317 47.3289 34.2377 47.359 34.2374M47.359 33.7286C47.4359 33.7286 47.5098 33.7588 47.5646 33.8128C47.5911 33.8388 47.6121 33.8697 47.6266 33.9039C47.6415 33.939 47.6492 33.9767 47.6492 34.0149C47.6492 34.053 47.6415 34.0908 47.6266 34.1258C47.6118 34.1598 47.5908 34.1907 47.5646 34.2169C47.5378 34.2427 47.5065 34.2635 47.4724 34.2783C47.4365 34.2936 47.398 34.3013 47.359 34.3011C47.3196 34.3014 47.2805 34.2936 47.2442 34.2783C47.2097 34.2638 47.1781 34.243 47.1513 34.2169C47.1251 34.1897 47.1044 34.1578 47.0902 34.1228C47.0752 34.0878 47.0675 34.05 47.0675 34.0119C47.0675 33.9737 47.0752 33.936 47.0902 33.9009C47.1046 33.8668 47.1257 33.8358 47.1521 33.8099C47.1786 33.7833 47.2103 33.7624 47.2451 33.7485C47.2814 33.7331 47.3205 33.7254 47.3599 33.7257M20.563 32.7035C20.563 32.1974 20.8937 31.7816 21.4343 31.7816C21.9509 31.7816 22.2995 32.1795 22.2995 32.7035C22.2995 33.2276 21.9509 33.6255 21.4343 33.6255C20.8937 33.6255 20.563 33.2097 20.563 32.7035ZM22.8884 32.7035V31.2632H22.2638V31.6141C22.0657 31.3548 21.7652 31.1921 21.3566 31.1921C20.5516 31.1921 19.9199 31.8251 19.9199 32.7042C19.9199 33.5834 20.5513 34.2164 21.3566 34.2164C21.7651 34.2164 22.0657 34.0535 22.2638 33.7944V34.1441H22.8877V32.7035H22.8884ZM43.992 32.7035C43.992 32.1974 44.3227 31.7816 44.8635 31.7816C45.3806 31.7816 45.7287 32.1795 45.7287 32.7035C45.7287 33.2276 45.3806 33.6255 44.8635 33.6255C44.3229 33.6255 43.992 33.2097 43.992 32.7035ZM46.3181 32.7035V30.1071H45.693V31.6141C45.4949 31.3548 45.1944 31.1921 44.7858 31.1921C43.9808 31.1921 43.349 31.8251 43.349 32.7042C43.349 33.5834 43.9804 34.2164 44.7858 34.2164C45.1944 34.2164 45.4949 34.0535 45.693 33.7944V34.1441H46.3181V32.7035ZM30.6402 31.752C31.0427 31.752 31.3012 32.005 31.3671 32.4504H29.8768C29.9435 32.0346 30.1953 31.752 30.6404 31.752M30.6528 31.1906C29.811 31.1906 29.2222 31.8046 29.2222 32.7027C29.2222 33.6183 29.8347 34.2148 30.6946 34.2148C31.1272 34.2148 31.5234 34.1065 31.872 33.8113L31.5659 33.3472C31.3251 33.5402 31.0185 33.6485 30.7303 33.6485C30.3278 33.6485 29.9614 33.4616 29.8712 32.9432H32.004C32.0101 32.8653 32.0164 32.7867 32.0164 32.7025C32.0101 31.8048 31.4564 31.1904 30.6524 31.1904M38.1932 32.7025C38.1932 32.1964 38.5239 31.7806 39.0645 31.7806C39.5811 31.7806 39.9297 32.1785 39.9297 32.7025C39.9297 33.2265 39.5811 33.6244 39.0645 33.6244C38.5239 33.6244 38.193 33.2086 38.193 32.7025M40.5184 32.7025V31.2632H39.8942V31.6141C39.6954 31.3548 39.3956 31.1921 38.987 31.1921C38.182 31.1921 37.5502 31.8251 37.5502 32.7042C37.5502 33.5834 38.1816 34.2164 38.987 34.2164C39.3956 34.2164 39.6954 34.0535 39.8942 33.7944V34.1441H40.5186V32.7035L40.5184 32.7025ZM34.6661 32.7025C34.6661 33.576 35.2726 34.2146 36.1984 34.2146C36.631 34.2146 36.9192 34.1181 37.2309 33.8713L36.9309 33.3651C36.6964 33.5341 36.4502 33.6244 36.1784 33.6244C35.6798 33.6183 35.3132 33.2569 35.3132 32.7025C35.3132 32.1481 35.6798 31.7869 36.1784 31.7806C36.4495 31.7806 36.6957 31.8709 36.9309 32.0399L37.2309 31.5337C36.9187 31.2869 36.6304 31.1904 36.1984 31.1904C35.2726 31.1904 34.6661 31.8288 34.6661 32.7025ZM42.7178 31.1904C42.3575 31.1904 42.1228 31.3593 41.9606 31.6123V31.2632H41.3416V34.1425H41.9669V32.5285C41.9669 32.052 42.1711 31.7872 42.5794 31.7872C42.7131 31.7853 42.8458 31.8099 42.97 31.8597L43.1625 31.2695C43.0242 31.215 42.844 31.1909 42.7175 31.1909M25.9763 31.4921C25.6758 31.2935 25.2617 31.1909 24.805 31.1909C24.0773 31.1909 23.6089 31.5406 23.6089 32.1127C23.6089 32.5821 23.9576 32.8718 24.5999 32.9621L24.8949 33.0042C25.2374 33.0525 25.3991 33.1428 25.3991 33.3055C25.3991 33.5281 25.1716 33.6551 24.7444 33.6551C24.3118 33.6551 23.9996 33.5165 23.7891 33.3539L23.4956 33.8421C23.8381 34.0951 24.2707 34.2158 24.7392 34.2158C25.5687 34.2158 26.0494 33.8242 26.0494 33.276C26.0494 32.7699 25.6711 32.5051 25.046 32.4148L24.7516 32.372C24.4812 32.3369 24.2646 32.2823 24.2646 32.0893C24.2646 31.8788 24.4688 31.7521 24.8115 31.7521C25.1781 31.7521 25.533 31.8907 25.7069 31.999L25.9773 31.4928L25.9763 31.4921ZM34.0352 31.1914C33.6749 31.1914 33.4402 31.3604 33.2787 31.6134V31.2632H32.6597V34.1425H33.2843V32.5285C33.2843 32.052 33.4885 31.7872 33.8968 31.7872C34.0305 31.7853 34.1632 31.8099 34.2874 31.8597L34.4799 31.2695C34.3416 31.215 34.1614 31.1909 34.0348 31.1909M28.7054 31.2632H27.6841V30.3897H27.0527V31.2632H26.4701V31.8355H27.0527V33.149C27.0527 33.8171 27.3113 34.215 28.0502 34.215C28.3213 34.215 28.6335 34.1307 28.8316 33.9923L28.6511 33.4562C28.4648 33.5644 28.2605 33.619 28.0981 33.619C27.7859 33.619 27.6841 33.426 27.6841 33.1371V31.836H28.7054V31.2632ZM19.3676 34.1432V32.3362C19.3676 31.6557 18.935 31.1978 18.2376 31.1916C17.871 31.1855 17.4928 31.2999 17.228 31.7039C17.0299 31.3846 16.7177 31.1916 16.2788 31.1916C15.9721 31.1916 15.6723 31.282 15.4376 31.6192V31.2632H14.8125V34.1425H15.4425V32.546C15.4425 32.0462 15.719 31.7806 16.146 31.7806C16.5607 31.7806 16.7706 32.0516 16.7706 32.5397V34.1421H17.402V32.5457C17.402 32.0458 17.6902 31.7802 18.1048 31.7802C18.5312 31.7802 18.7348 32.0513 18.7348 32.5393V34.1418L19.3676 34.1432Z" fill="#231F20"/>
<path d="M47.6665 24.5652V24.1442H47.5571L47.4306 24.4331L47.3047 24.1442H47.195V24.5652H47.2727V24.248L47.391 24.5217H47.4715L47.5898 24.2473V24.5652H47.6668H47.6665ZM46.9726 24.5652V24.2163H47.1126V24.1452H46.7549V24.2163H46.8949V24.5652H46.9719H46.9726Z" fill="#F79410"/>
<path d="M35.2351 26.3711H25.77V9.31848H35.2352L35.2351 26.3711Z" fill="#FF5F00"/>
<path d="M26.37 17.845C26.37 14.3859 27.9856 11.3045 30.5014 9.31866C28.5971 7.81331 26.2417 6.9963 23.8166 6.99989C17.8426 6.99989 13 11.8553 13 17.845C13 23.8346 17.8426 28.6901 23.8166 28.6901C26.2418 28.6937 28.5972 27.8767 30.5016 26.3713C27.986 24.3859 26.37 21.3043 26.37 17.845Z" fill="#EB001B"/>
<path d="M48.0044 17.845C48.0044 23.8346 43.1618 28.6901 37.1878 28.6901C34.7624 28.6936 32.4067 27.8766 30.502 26.3713C33.0185 24.3855 34.6341 21.3043 34.6341 17.845C34.6341 14.3857 33.0185 11.3045 30.502 9.31866C32.4066 7.81335 34.7623 6.99636 37.1877 6.99989C43.1616 6.99989 48.0042 11.8553 48.0042 17.845" fill="#F79E1B"/>
</g>
<defs>
<clipPath id="clip0_829_1966">
<rect width="61.5" height="41" fill="white"/>
</clipPath>
<clipPath id="clip1_829_1966">
<rect width="35" height="27.2982" fill="white" transform="translate(13 7)"/>
</clipPath>
</defs>
</svg>
