<svg width="62" height="41" viewBox="0 0 62 41" fill="none" xmlns="http://www.w3.org/2000/svg">
<g clip-path="url(#clip0_214_551)">
<path d="M0 5.125C0 2.29454 2.29454 0 5.125 0H56.375C59.2055 0 61.5 2.29454 61.5 5.125V35.875C61.5 38.7055 59.2055 41 56.375 41H5.125C2.29454 41 0 38.7055 0 35.875V5.125Z" fill="#D8E3F3"/>
<path d="M52.9284 12.8574H49.7065C48.7325 12.8574 47.9832 13.1571 47.5337 14.1312L41.3896 28.1425H45.7354C45.7354 28.1425 46.4847 26.2693 46.6345 25.8198C47.0841 25.8198 51.3549 25.8198 51.9543 25.8198C52.1042 26.3443 52.4788 28.0676 52.4788 28.0676H56.375L52.9284 12.8574ZM47.8334 22.6728C48.208 21.7737 49.4818 18.402 49.4818 18.402C49.4818 18.4769 49.8564 17.5029 50.0062 16.9784L50.3059 18.3271C50.3059 18.3271 51.1301 21.9985 51.28 22.7478H47.8334V22.6728Z" fill="#3362AB"/>
<path d="M41.6893 23.1225C41.6893 26.2694 38.842 28.3673 34.4213 28.3673C32.5482 28.3673 30.7499 27.9927 29.7759 27.5431L30.3753 24.0965L30.8998 24.3213C32.2485 24.9207 33.1476 25.1455 34.796 25.1455C35.9948 25.1455 37.2686 24.6959 37.2686 23.6469C37.2686 22.9726 36.7441 22.523 35.0957 21.7738C33.5222 21.0245 31.4243 19.8257 31.4243 17.6528C31.4243 14.6557 34.3464 12.6327 38.4674 12.6327C40.0409 12.6327 41.3895 12.9324 42.2137 13.307L41.6143 16.6038L41.3146 16.3041C40.5654 16.0044 39.5913 15.7047 38.1677 15.7047C36.5942 15.7796 35.845 16.454 35.845 17.0534C35.845 17.7277 36.7441 18.2522 38.1677 18.9265C40.5654 20.0505 41.6893 21.3242 41.6893 23.1225Z" fill="#3362AB"/>
<path d="M5.125 13.0073L5.19993 12.7076H11.6436C12.5428 12.7076 13.2171 13.0073 13.4419 13.9814L14.8655 20.7248C13.4419 17.1283 10.1451 14.2062 5.125 13.0073Z" fill="#F9B50B"/>
<path d="M23.9318 12.8575L17.4131 28.0677H12.9924L9.24609 15.3301C11.9435 17.0534 14.1913 19.7508 15.0155 21.624L15.465 23.1974L19.5111 12.7826H23.9318V12.8575Z" fill="#3362AB"/>
<path d="M25.6552 12.7826H29.7761L27.1537 28.0677H23.0327L25.6552 12.7826Z" fill="#3362AB"/>
</g>
<defs>
<clipPath id="clip0_214_551">
<rect width="61.5" height="41" fill="white"/>
</clipPath>
</defs>
</svg>
